<?xml version="1.0" encoding="UTF-8" standalone="no"?>
<!-- Created with Inkscape (http://www.inkscape.org/) -->

<svg
   width="113.23836mm"
   height="112.24386mm"
   viewBox="0 0 113.23836 112.24386"
   version="1.1"
   id="svg1"
   xml:space="preserve"
   xmlns="http://www.w3.org/2000/svg"
   xmlns:svg="http://www.w3.org/2000/svg"><defs
     id="defs1" /><g
     id="layer1"
     style="display:inline"
     transform="translate(-50.759526,-44.144549)"><circle
       style="display:none;opacity:0.547198;fill:#a8a8a8;fill-opacity:1;stroke:#000000;stroke-width:1.055;stroke-dasharray:none;stroke-opacity:0"
       id="path15"
       cx="107.37871"
       cy="104.42793"
       r="77.10392" /><g
       id="g117"
       style="display:none;opacity:1"><path
         id="path2"
         style="display:inline;opacity:1;fill:#000000;stroke-width:0.284238"
         d="m 50.383004,158.61967 a 7.895669,8.0304157 0 0 0 -7.895642,8.03039 7.895669,8.0304157 0 0 0 7.895642,8.03039 7.895669,8.0304157 0 0 0 7.895642,-8.03039 7.895669,8.0304157 0 0 0 -7.895642,-8.03039 z m 0,3.81521 a 4.1447635,4.2154976 0 0 1 4.14445,4.21518 4.1447635,4.2154976 0 0 1 -4.14445,4.2157 4.1447635,4.2154976 0 0 1 -4.144967,-4.2157 4.1447635,4.2154976 0 0 1 4.144967,-4.21518 z" /><path
         id="rect3"
         style="display:inline;opacity:1;fill:#000000;stroke-width:0.286274"
         d="m 63.430165,159.77668 -0.041,-0.52538 a 0.42226898,0.42226898 42.769028 0 0 -0.42099,-0.38942 h -2.154257 a 1.198699,1.198699 135 0 0 -1.198699,1.1987 l 0,18.45567 a 0.60680022,0.60680022 44.46252 0 0 0.618184,0.60669 l 2.360203,-0.0443 a 0.79714431,0.79714431 134.78171 0 0 0.78214,-0.78812 l 0.06797,-6.10028 c 1.095653,0.61174 2.572516,1.25799 3.827363,1.26455 4.103314,-2.3e-4 6.825716,-2.93504 6.825665,-7.03835 5.7e-5,-4.10332 -1.771622,-7.48043 -5.870424,-7.67289 -2.027887,-0.0952 -2.939752,0.21896 -4.565861,1.15409 -0.116951,0.0673 -0.219801,0.0135 -0.230297,-0.12097 z m 3.699846,2.41006 c 1.999904,-10e-6 3.146485,1.75979 3.146342,3.93051 -1.21e-4,2.17052 -1.146625,3.93 -3.146342,3.92999 -1.999717,1e-5 -3.620847,-1.75947 -3.620968,-3.92999 -1.43e-4,-2.17072 1.621064,-3.93052 3.620968,-3.93051 z" /><path
         id="path3"
         style="display:inline;opacity:1;fill:#000000;stroke-width:0.376905"
         d="m 82.94057,158.37005 c -4.260798,-5e-5 -7.714857,3.44129 -7.714775,7.68635 -8.2e-5,4.24506 3.453977,7.6864 7.714775,7.68635 2.192635,-7.5e-4 4.2703,-0.93026 5.725441,-2.53751 0.240782,-0.26595 0.246063,-0.73615 0.03734,-1.02807 l -0.905032,-1.26574 c -0.240086,-0.33577 -0.74148,-0.47134 -1.094045,-0.25735 -0.93072,0.5649 -1.999083,1.39223 -3.412819,1.39071 -2.186166,-0.002 -3.95558,-1.24574 -3.952214,-2.77709 2.848801,0.003 5.697371,-0.007 8.545726,0.0293 0.821241,0.0105 1.620615,-0.63335 1.648213,-1.45348 0.126637,-3.76322 -1.919905,-7.47283 -6.592575,-7.4731 z m -0.330729,3.64112 c 1.760182,0.0118 3.176474,1.28333 3.163114,2.84014 l -6.374288,-0.0429 c 0.01336,-1.5568 1.450991,-2.80908 3.211174,-2.79725 z" /><path
         id="rect98-2"
         style="opacity:1;stroke-width:0.409117"
         d="m 90.988245,159.56738 v 13.11973 a 0.83718164,0.83718164 45 0 0 0.837182,0.83718 l 1.937085,0 a 0.79243977,0.79243977 135 0 0 0.79244,-0.79244 v -4.39546 c 0,-1.04565 -0.141626,-2.78182 0.205531,-3.758 0.179051,-0.50347 0.455629,-0.96804 0.817538,-1.34083 0.859062,-0.88488 3.275574,-0.84873 4.02803,0.11451 0.184187,0.23579 0.344329,0.50936 0.478609,0.81626 0.50561,1.15558 0.52273,3.27016 0.82825,4.49916 0.58923,2.3702 1.88392,4.30046 4.03047,5.15459 1.01843,0.40524 2.86996,0.33925 3.76298,-0.27904 0.60327,-0.41768 1.16649,-0.94282 1.76759,-1.37447 0.34502,-0.24777 0.66259,-0.0666 0.67811,0.35844 l 0.0101,0.27644 a 0.77115282,0.77115282 42.948879 0 0 0.7977,0.74254 l 1.37808,-0.0484 a 1.0408819,1.0408819 133.99457 0 0 1.00436,-1.04024 v -12.75209 a 0.9205921,0.9205921 45 0 0 -0.92059,-0.92059 h -1.50243 a 0.98297482,0.98297482 135 0 0 -0.98297,0.98297 v 5.03428 c 0,0.55165 -0.0198,1.44821 -0.12915,1.98842 -0.2606,1.28797 -1.04047,3.37358 -3.35784,3.35166 -1.63582,-0.0155 -2.48858,-1.31007 -2.92563,-2.48138 -0.36896,-0.98881 -0.43916,-2.71767 -0.43916,-3.77586 l 0,-3.46478 c 0,-0.93027 -0.75413,-1.6847 -1.6844,-1.68406 -1.7184,0.001 -3.555936,0.005 -5.243439,0.007 -0.606171,7.3e-4 -1.35579,0.41921 -1.674321,0.93494 l -0.279014,0.45175 a 0.2918773,0.2918773 14.623852 0 1 -0.539941,-0.14088 l -0.02792,-0.65183 a 0.62815467,0.62815467 43.922104 0 0 -0.624321,-0.60126 l -2.175071,-0.0113 a 0.84348094,0.84348094 135.14855 0 0 -0.847855,0.84347 z" /><path
         d="m 113.20014,189.28224 0.007,-1.22632 c 0.004,-0.74937 -0.47625,-0.98944 -1.0883,-0.55708 -1.17464,0.82979 -2.54259,1.55026 -2.58381,-0.42533 l 2.6e-4,-6.08909 a 0.35524398,0.35524398 134.8813 0 1 0.35375,-0.35523 l 3.12866,-0.0131 a 0.19790799,0.19790799 134.8801 0 0 0.19708,-0.1979 v -1.71496 a 0.22562551,0.22562551 44.865666 0 0 -0.22668,-0.22563 l -3.18732,0.0149 a 0.29319683,0.29319683 45.067715 0 1 -0.29457,-0.29526 l 0.0208,-2.9505 a 0.27999806,0.27999806 45.070998 0 0 -0.28127,-0.28197 l -2.08518,0.01 a 0.27641276,0.27641276 134.71916 0 0 -0.27514,0.27786 l 0.0154,2.94862 a 0.2588335,0.2588335 134.34122 0 1 -0.25423,0.26014 l -1.38519,0.0246 a 0.24861568,0.24861568 134.4509 0 0 -0.2442,0.24893 l 0.002,1.67467 a 0.22520399,0.22520399 45.157448 0 0 0.22365,0.22488 l 1.31567,0.009 a 0.3329006,0.3329006 45.280714 0 1 0.33061,0.33386 l -0.0216,7.43507 a 3.0792123,3.0792123 33.369938 0 0 4.3034,2.83434 l 1.02443,-0.44388 a 1.6672514,1.6672514 123.45066 0 0 1.00437,-1.52028 z"
         id="text100"
         style="font-weight:600;font-size:22.9971px;font-family:'Source Han Sans TW';-inkscape-font-specification:'Source Han Sans TW, Semi-Bold';opacity:1;stroke-width:0.479107"
         transform="scale(1.1039779,0.90581523)"
         aria-label="t" /><path
         id="path103"
         style="opacity:1;stroke-width:0.264583"
         d="m 136.42564,155.38829 c 0,1.02831 -0.83362,1.86193 -1.86193,1.86193 -1.02832,0 -1.86194,-0.83361 -1.86194,-1.86193 0,-1.02832 0.83362,-1.86193 1.86194,-1.86193 1.02831,0 1.86193,0.83362 1.86193,1.86193 z m -3.01107,3.48277 h 2.09117 a 0.73637846,0.73637846 45 0 1 0.73638,0.73638 v 13.02895 a 0.6649783,0.6649783 135 0 1 -0.66498,0.66498 h -2.07842 a 0.77346733,0.77346733 45 0 1 -0.77347,-0.77347 v -12.96752 a 0.68932358,0.68932358 135 0 1 0.68932,-0.68932 z"
         transform="translate(-5.8964173,0.04403161)" /><path
         id="path104"
         style="opacity:1;stroke-width:0.264583"
         d="m 127.59373,153.06119 h 1.81795 a 1.1390077,1.1390077 45 0 1 1.13901,1.13901 v 18.09678 a 1.194466,1.194466 135 0 1 -1.19447,1.19447 l -1.76249,0 a 1.194466,1.194466 45 0 1 -1.19447,-1.19447 v -18.04132 a 1.194466,1.194466 135 0 1 1.19447,-1.19447 z"
         transform="translate(5.5693032,-0.05368775)" /><path
         id="path110"
         style="opacity:1;stroke-width:0.264583"
         d="m 136.42564,155.38829 c 0,1.02831 -0.83362,1.86193 -1.86193,1.86193 -1.02832,0 -1.86194,-0.83361 -1.86194,-1.86193 0,-1.02832 0.83362,-1.86193 1.86194,-1.86193 1.02831,0 1.86193,0.83362 1.86193,1.86193 z m -3.01107,3.48277 h 2.09117 a 0.73637846,0.73637846 45 0 1 0.73638,0.73638 v 13.02895 a 0.6649783,0.6649783 135 0 1 -0.66498,0.66498 h -2.07842 a 0.77346733,0.77346733 45 0 1 -0.77347,-0.77347 v -12.96752 a 0.68932358,0.68932358 135 0 1 0.68932,-0.68932 z"
         transform="translate(4.9407186,-0.06410189)" /><path
         id="rect111"
         style="opacity:1;fill:#000000;stroke-width:0.28246"
         d="m 144.7114,159.81896 v 1.41962 a 1.0049553,1.0049553 45.010614 0 0 1.00458,1.00495 l 6.29532,0.002 a 0.35371921,0.35371921 66.097102 0 1 0.26202,0.5912 l -7.18702,7.9337 a 1.5088577,1.5088577 65.900138 0 0 1.12806,2.52183 l 11.17946,-0.0727 a 0.61788784,0.61788784 135.13949 0 0 0.61383,-0.61085 l 0.0194,-1.70675 a 0.74791079,0.74791079 45.392215 0 0 -0.74613,-0.75642 l -6.17146,-0.0143 a 0.38278278,0.38278278 65.691608 0 1 -0.2869,-0.63517 l 6.76923,-7.71871 a 1.7703007,1.7703007 65.788516 0 0 -1.32088,-2.93752 l -10.51484,-0.0599 a 1.0387649,1.0387649 135.16329 0 0 -1.04469,1.03875 z"
         transform="translate(-1.0671911,-0.2901336)" /><path
         id="path113"
         style="display:inline;opacity:1;fill:#000000;stroke-width:0.376905"
         d="m 82.94057,158.37005 c -4.260798,-5e-5 -7.714857,3.44129 -7.714775,7.68635 -8.2e-5,4.24506 3.453977,7.6864 7.714775,7.68635 2.192635,-7.5e-4 4.2703,-0.93026 5.725441,-2.53751 0.240782,-0.26595 0.246063,-0.73615 0.03734,-1.02807 l -0.905032,-1.26574 c -0.240086,-0.33577 -0.74148,-0.47134 -1.094045,-0.25735 -0.93072,0.5649 -1.999083,1.39223 -3.412819,1.39071 -2.186166,-0.002 -3.95558,-1.24574 -3.952214,-2.77709 2.848801,0.003 5.697371,-0.007 8.545726,0.0293 0.821241,0.0105 1.620615,-0.63335 1.648213,-1.45348 0.126637,-3.76322 -1.919905,-7.47283 -6.592575,-7.4731 z m -0.330729,3.64112 c 1.760182,0.0118 3.176474,1.28333 3.163114,2.84014 l -6.374288,-0.0429 c 0.01336,-1.5568 1.450991,-2.80908 3.211174,-2.79725 z"
         transform="translate(83.774962,-0.05481113)" /></g><g
       id="g7"
       style="display:inline;opacity:0.772"
       transform="translate(0.26458333,0.26458333)"><path
         id="path1"
         style="opacity:1;fill:#000000;stroke-width:0.28259"
         d="m 107.43638,51.662317 a 7.1933589,7.1933589 0 0 0 -7.19336,7.19336 7.1933589,7.1933589 0 0 0 7.19336,7.193359 7.1933589,7.1933589 0 0 0 7.19336,-7.193359 7.1933589,7.1933589 0 0 0 -7.19336,-7.19336 z m -0.26975,3.383256 a 3.6240683,3.6240683 0 0 1 3.62407,3.624068 3.6240683,3.6240683 0 0 1 -3.62407,3.624069 3.6240683,3.6240683 0 0 1 -3.62407,-3.624069 3.6240683,3.6240683 0 0 1 3.62407,-3.624068 z" /><rect
         style="opacity:1;fill:#000000;stroke-width:0.283696"
         id="rect4"
         width="2.7559037"
         height="5.010468"
         x="106.05807"
         y="43.879963"
         ry="1.4373933" /><path
         id="rect5"
         style="opacity:1;stroke-width:0.227367"
         transform="matrix(0.73245491,0.68081554,-0.68057913,0.73267458,0,0)"
         d="m 104.87829,-32.219669 0.36895,0.141361 a 2.1800924,2.1800924 1.4345019 0 0 1.4571,0.03649 l 0.43934,-0.143554 a 0.30255333,0.30255333 48.089796 0 1 0.36977,0.411972 l -0.32378,0.717949 a 0.85783983,0.85783983 90.96566 0 0 -0.0114,0.678773 l 0.2806,0.682698 a 0.31900845,0.31900845 135.45126 0 1 -0.42096,0.414383 l -0.53422,-0.229466 a 1.429112,1.429112 0.41714052 0 0 -1.10888,-0.0081 l -0.48338,0.199345 a 0.29050401,0.29050401 45.477287 0 1 -0.37743,-0.383776 l 0.17302,-0.400493 a 1.7966562,1.7966562 89.622177 0 0 -0.01,-1.446801 l -0.14581,-0.325634 a 0.25711508,0.25711508 133.42113 0 1 0.32666,-0.345172 z" /><path
         id="path21"
         style="opacity:1;stroke-width:0.227367"
         transform="matrix(0.73245491,0.68081554,-0.68057913,0.73267458,17.608077,-0.46351949)"
         d="m 104.87829,-32.219669 0.36895,0.141361 a 2.1800924,2.1800924 1.4345019 0 0 1.4571,0.03649 l 0.43934,-0.143554 a 0.30255333,0.30255333 48.089796 0 1 0.36977,0.411972 l -0.32378,0.717949 a 0.85783983,0.85783983 90.96566 0 0 -0.0114,0.678773 l 0.2806,0.682698 a 0.31900845,0.31900845 135.45126 0 1 -0.42096,0.414383 l -0.53422,-0.229466 a 1.429112,1.429112 0.41714052 0 0 -1.10888,-0.0081 l -0.48338,0.199345 a 0.29050401,0.29050401 45.477287 0 1 -0.37743,-0.383776 l 0.17302,-0.400493 a 1.7966562,1.7966562 89.622177 0 0 -0.01,-1.446801 l -0.14581,-0.325634 a 0.25711508,0.25711508 133.42113 0 1 0.32666,-0.345172 z" /><path
         id="path23"
         style="opacity:1;stroke-width:0.227367"
         transform="matrix(1.2674743,1.178115,-1.1777059,1.2678543,-115.15067,-4.8654725)"
         d="m 104.87829,-32.219669 0.36895,0.141361 a 2.1800924,2.1800924 1.4345019 0 0 1.4571,0.03649 l 0.43934,-0.143554 a 0.30255333,0.30255333 48.089796 0 1 0.36977,0.411972 l -0.32378,0.717949 a 0.85783983,0.85783983 90.96566 0 0 -0.0114,0.678773 l 0.2806,0.682698 a 0.31900845,0.31900845 135.45126 0 1 -0.42096,0.414383 l -0.53422,-0.229466 a 1.429112,1.429112 0.41714052 0 0 -1.10888,-0.0081 l -0.48338,0.199345 a 0.29050401,0.29050401 45.477287 0 1 -0.37743,-0.383776 l 0.17302,-0.400493 a 1.7966562,1.7966562 89.622177 0 0 -0.01,-1.446801 l -0.14581,-0.325634 a 0.25711508,0.25711508 133.42113 0 1 0.32666,-0.345172 z" /><path
         id="path25"
         style="opacity:1;stroke-width:0.227367"
         transform="matrix(1.2674743,1.178115,-1.1777059,1.2678543,-10.817681,-4.8598087)"
         d="m 104.87829,-32.219669 0.36895,0.141361 a 2.1800924,2.1800924 1.4345019 0 0 1.4571,0.03649 l 0.43934,-0.143554 a 0.30255333,0.30255333 48.089796 0 1 0.36977,0.411972 l -0.32378,0.717949 a 0.85783983,0.85783983 90.96566 0 0 -0.0114,0.678773 l 0.2806,0.682698 a 0.31900845,0.31900845 135.45126 0 1 -0.42096,0.414383 l -0.53422,-0.229466 a 1.429112,1.429112 0.41714052 0 0 -1.10888,-0.0081 l -0.48338,0.199345 a 0.29050401,0.29050401 45.477287 0 1 -0.37743,-0.383776 l 0.17302,-0.400493 a 1.7966562,1.7966562 89.622177 0 0 -0.01,-1.446801 l -0.14581,-0.325634 a 0.25711508,0.25711508 133.42113 0 1 0.32666,-0.345172 z" /></g><g
       id="g29"
       style="display:inline"><g
         transform="matrix(0.87982143,-0.45391724,0.42623902,0.8261731,81.658041,90.390522)"
         id="Shape"
         style="fill:none;fill-rule:evenodd;stroke:none;stroke-width:1"><path
           d="m 5,4 h 14 c 1.104569,0 2,0.8954305 2,2 v 12 c 0,1.104569 -0.895431,2 -2,2 H 5 C 3.8954305,20 3,19.104569 3,18 V 6 C 3,4.8954305 3.8954305,4 5,4 Z"
           stroke="#000000"
           stroke-width="2"
           stroke-linecap="round"
           stroke-linejoin="round"
           id="path1-1" /><path
           d="m 3,15.749983 4.7196562,-4.719656 c 0.1406523,-0.140652 0.3314178,-0.21967 0.5303302,-0.21967 0.1989124,0 0.3896779,0.07902 0.5303302,0.21967 l 4.1893394,4.189341 c 0.140653,0.140652 0.331418,0.21967 0.53033,0.21967 0.198913,0 0.389678,-0.07902 0.530331,-0.21967 l 1.939339,-1.939341 c 0.140652,-0.140652 0.331418,-0.21967 0.53033,-0.21967 0.198913,0 0.389678,0.07902 0.530331,0.21967 L 20.999983,17.25"
           stroke="#000000"
           stroke-width="2"
           stroke-linecap="round"
           stroke-linejoin="round"
           id="path2-7" /><circle
           cx="16.5"
           cy="8.5"
           r="1.5"
           id="circle2"
           fill="#000000" /></g><g
         style="fill:none"
         id="g27"
         transform="matrix(1.2033137,0,0,1.2033137,119.09742,60.867635)"><path
           fill-rule="evenodd"
           clip-rule="evenodd"
           d="M 11.0175,19 C 10.6601,19 10.3552,18.7347 10.297,18.373 10.2434,18.0804 10.038,17.8413 9.76171,17.75 9.53658,17.6707 9.31645,17.5772 9.10261,17.47 8.84815,17.3365 8.54289,17.3565 8.30701,17.522 8.02156,17.7325 7.62943,17.6999 7.38076,17.445 L 6.41356,16.453 C 6.15326,16.186 6.11944,15.7651 6.33361,15.458 6.49878,15.2105 6.52257,14.8914 6.39601,14.621 6.31262,14.4332 6.23906,14.2409 6.17566,14.045 6.08485,13.7363 5.8342,13.5051 5.52533,13.445 5.15287,13.384 4.8779,13.0559 4.87501,12.669 v -1.241 c -0.00198,-0.4459 0.31204,-0.8273 0.741,-0.9 C 5.94143,10.4645 6.21316,10.2359 6.33751,9.921 6.37456,9.83233 6.41356,9.74433 6.45451,9.657 6.61989,9.33044 6.59705,8.93711 6.39503,8.633 6.1424,8.27288 6.18119,7.77809 6.48668,7.464 L 7.19746,6.735 C 7.54802,6.37532 8.1009,6.32877 8.50396,6.625 l 0.02242,0.016 c 0.30097,0.20776 0.68395,0.24539 1.0179,0.1 C 9.90155,6.60911 10.1649,6.29424 10.2375,5.912 L 10.2473,5.878 C 10.3275,5.37197 10.7536,5.00021 11.2535,5 h 0.858 c 0.5133,-2.4e-4 0.9514,0.38057 1.0354,0.9 l 0.0156,0.07 c 0.0689,0.36617 0.3186,0.66922 0.6591,0.8 0.3282,0.14447 0.7056,0.10674 1.0004,-0.1 l 0.0487,-0.036 c 0.4135,-0.30566 0.9821,-0.25865 1.3426,0.111 l 0.6542,0.672 c 0.3279,0.33816 0.3691,0.86993 0.0975,1.257 -0.2128,0.32352 -0.2399,0.73925 -0.0712,1.089 l 0.042,0.1 c 0.1366,0.3415 0.4323,0.589 0.7858,0.658 0.4621,0.0773 0.8019,0.4859 0.8034,0.966 V 12.6 c -10e-5,0.4234 -0.2987,0.7846 -0.7059,0.854 -0.3349,0.0659 -0.6077,0.3146 -0.7108,0.648 -0.0455,0.1333 -0.0962,0.2667 -0.1521,0.4 -0.1301,0.293 -0.1012,0.6344 0.0761,0.9 0.2339,0.3338 0.1976,0.7923 -0.0858,1.083 l -0.9077,0.932 c -0.2596,0.2662 -0.669,0.3005 -0.9672,0.081 -0.249,-0.1745 -0.5715,-0.1937 -0.8385,-0.05 -0.1903,0.0967 -0.3856,0.1825 -0.585,0.257 -0.2789,0.0987 -0.4845,0.3435 -0.5382,0.641 -0.0569,0.3743 -0.3698,0.6512 -0.7391,0.654 z"
           stroke="#000000"
           stroke-width="1.5"
           stroke-linecap="round"
           stroke-linejoin="round"
           id="path1-2" /><path
           fill-rule="evenodd"
           clip-rule="evenodd"
           d="m 13.9747,12 c 0,1.2885 -1.0184,2.333 -2.2747,2.333 -1.2563,0 -2.27467,-1.0445 -2.27467,-2.333 0,-1.2885 1.01837,-2.33301 2.27467,-2.33301 1.2563,0 2.2747,1.04451 2.2747,2.33301 z"
           stroke="#000000"
           stroke-width="1.5"
           stroke-linecap="round"
           stroke-linejoin="round"
           id="path2-72" /></g><g
         style="fill:none"
         id="g28"
         transform="matrix(0.73211542,0.27706367,-0.27706367,0.73211542,113.12692,82.291798)"><path
           d="M 2.55078,4.5 C 2.61472,3.84994 2.75923,3.41238 3.08582,3.08579 3.67161,2.5 4.61442,2.5 6.50004,2.5 8.38565,2.5 9.32846,2.5 9.91425,3.08579 10.5,3.67157 10.5,4.61438 10.5,6.5 c 0,1.88562 0,2.82843 -0.58575,3.41421 C 9.32846,10.5 8.38565,10.5 6.50004,10.5 4.61442,10.5 3.67161,10.5 3.08582,9.91421 2.77645,9.60484 2.63047,9.19589 2.56158,8.60106"
           stroke="#1c274c"
           stroke-width="1.5"
           stroke-linecap="round"
           id="path1-26"
           style="stroke:#000000" /><path
           d="M 21.4493,15.5 C 21.3853,14.8499 21.2408,14.4124 20.9142,14.0858 20.3284,13.5 19.3856,13.5 17.5,13.5 c -1.8856,0 -2.8284,0 -3.4142,0.5858 C 13.5,14.6716 13.5,15.6144 13.5,17.5 c 0,1.8856 0,2.8284 0.5858,3.4142 C 14.6716,21.5 15.6144,21.5 17.5,21.5 c 1.8856,0 2.8284,0 3.4142,-0.5858 0.3266,-0.3266 0.4711,-0.7641 0.5351,-1.4142"
           stroke="#1c274c"
           stroke-width="1.5"
           stroke-linecap="round"
           id="path2-1"
           style="stroke:#000000" /><path
           d="m 2.5,17.5 c 0,-1.8856 0,-2.8284 0.58579,-3.4142 C 3.67157,13.5 4.61438,13.5 6.5,13.5 c 1.88562,0 2.82843,0 3.41421,0.5858 C 10.5,14.6716 10.5,15.6144 10.5,17.5 c 0,1.8856 0,2.8284 -0.58579,3.4142 C 9.32843,21.5 8.38562,21.5 6.5,21.5 4.61438,21.5 3.67157,21.5 3.08579,20.9142 2.5,20.3284 2.5,19.3856 2.5,17.5 Z"
           stroke="#1c274c"
           stroke-width="1.5"
           id="path3-0"
           style="stroke:#000000" /><path
           d="m 13.5,6.5 c 0,-1.88562 0,-2.82843 0.5858,-3.41421 C 14.6716,2.5 15.6144,2.5 17.5,2.5 c 1.8856,0 2.8284,0 3.4142,0.58579 C 21.5,3.67157 21.5,4.61438 21.5,6.5 c 0,1.88562 0,2.82843 -0.5858,3.41421 C 20.3284,10.5 19.3856,10.5 17.5,10.5 c -1.8856,0 -2.8284,0 -3.4142,-0.58579 C 13.5,9.32843 13.5,8.38562 13.5,6.5 Z"
           stroke="#1c274c"
           stroke-width="1.5"
           id="path4"
           style="stroke:#000000" /></g><path
         id="rect117"
         style="display:inline;opacity:1;stroke-width:0.264583"
         d="m 135.42441,-15.067715 c -1.49031,0.841835 -2.26844,2.54807 -1.92695,4.225298 l 2.7344,13.4216959 c 0.0651,0.3195077 -0.14691,0.5714442 -0.47167,0.5987665 -0.30826,0.025933 -0.62798,0.080427 -0.93864,0.1858055 -0.26763,0.09078 -0.67242,0.3142645 -0.89333,0.4903704 -0.58844,0.4690834 -0.49646,1.7486667 -1.0253,2.0593505 l -9.69556,5.6959982 c -0.29966,0.170391 -0.70368,-0.05996 -1.034,-0.155275 -0.58931,-0.17004 -1.34047,-0.190612 -2.05013,0.05974 -0.26643,0.09399 -0.67024,0.319232 -0.88907,0.498055 -0.25402,0.207578 -0.4697,0.449813 -0.65508,0.697458 -0.1953,0.260907 -0.52156,0.306689 -0.75799,0.08214 L 107.88945,3.3594083 C 106.18862,1.743969 103.46275,1.9590098 102.03627,3.821159 L 86.241521,24.437963 c -1.694582,2.211668 -1.430498,5.349051 0.609948,7.24633 l 13.0497,12.134178 c 0.382521,0.355698 0.490121,1.015955 0.237411,1.473095 -2.454835,4.440527 -5.090908,8.777033 -7.72924,13.111129 -1.415905,2.325964 -0.350657,4.188337 2.372967,4.155869 l 13.034533,-0.155951 c 0.50861,-0.006 0.97948,0.267588 1.22612,0.712435 l 12.37247,22.3136 c 1.26596,2.283306 3.6898,3.680379 6.30012,3.631313 l 31.31728,-0.590216 c 1.15212,-0.0217 2.11537,-0.882257 2.26627,-2.024658 0.15158,-1.47589 -1.04262,-2.742221 -2.52486,-2.67735 L 126.941,84.240375 c -0.63453,0.0094 -1.22285,-0.330798 -1.53118,-0.88546 L 114.03481,62.883702 c -0.1353,-0.243685 0.0207,-0.546614 0.29768,-0.577964 l 1.14829,-0.129475 c 0.34099,-0.03863 0.67564,0.113136 0.87124,0.395105 l 5.25097,7.572767 c 0.59263,0.854615 1.52466,1.412547 2.55786,1.531186 l 13.72682,1.576102 c 1.25877,0.144699 2.40136,-0.74586 2.56839,-2.001862 0.0951,-1.274451 -0.88473,-2.37411 -2.16167,-2.426065 l -12.23446,-1.207365 c -0.6485,-0.06416 -1.23301,-0.418704 -1.58957,-0.964172 l -2.37055,-3.624879 c -0.20967,-0.320731 0.0202,-0.746119 0.40341,-0.746453 l 16.07551,-0.01626 c 0.59143,-4.91e-4 1.14236,-0.300489 1.46368,-0.797015 l 9.04929,-13.983932 16.63781,-0.261731 c 0.59115,-0.0092 1.13744,-0.317081 1.45146,-0.818008 l 8.53445,-13.622972 c 0.20339,-0.324744 0.68595,-0.294216 0.84679,0.05357 l 1.81752,3.930788 c 0.27349,0.591613 0.26415,1.275288 -0.0254,1.859209 l -5.46049,11.014197 c -0.63277,1.110346 -0.21963,2.524068 0.91147,3.118948 1.15335,0.524053 2.51392,0.02756 3.05867,-1.116163 L 182.803,39.165439 c 0.44703,-0.939007 0.46793,-2.025068 0.0574,-2.980579 l -3.63802,-8.4661 c -0.13543,-0.315316 -0.0867,-0.679535 0.12675,-0.94821 l 0.71843,-0.90509 c 0.17328,-0.218754 0.51339,-0.190601 0.64834,0.05367 l 11.32911,20.496062 c 0.30717,0.555514 0.28393,1.234946 -0.0605,1.768173 l -17.27393,26.742753 c -0.84065,1.222513 -0.39981,2.906371 0.93205,3.560113 1.04884,0.478004 2.28957,0.117371 2.91877,-0.848378 l 17.09919,-26.243565 c 1.42518,-2.187469 1.52523,-4.983325 0.26006,-7.267072 l -12.3632,-22.318162 c -0.24645,-0.445077 -0.2287,-0.989519 0.0462,-1.417593 l 7.04036,-10.9704669 c 1.47116,-2.2923494 0.45654,-4.1827818 -2.2663,-4.214987 -5.07362,-0.06001 -10.14763,-0.1234636 -15.21423,-0.395489 -0.52159,-0.028004 -1.02464,-0.4685107 -1.12351,-0.9814123 l -3.37259,-17.4973868 c -0.52732,-2.735879 -3.04777,-4.622754 -5.8214,-4.358063 l -25.85433,2.465786 c -0.5512,0.05256 -1.08519,0.220479 -1.56727,0.492843 z m 3.86605,3.473724 23.55151,-2.195699 c 0.78392,-0.07309 1.53884,0.493739 1.68222,1.266727 1.52375,8.2147122 2.78023,16.7438333 4.27682,24.941025 0.0393,0.214995 -0.0301,0.53455 -0.15498,0.713931 l -2.4134,3.468047 c -0.0793,0.113444 -0.25669,0.06897 -0.27307,-0.06844 l -0.76121,-6.341262 c -0.22661,-1.8894017 -1.91952,-3.2527534 -3.8138,-3.0713768 l -8.9837,0.8608886 c -0.54002,0.051615 -1.02269,-0.3368039 -1.08778,-0.8753689 L 150.9905,4.4372654 C 150.81521,2.9851136 149.5421,1.918838 148.08172,2.0010489 l -6.9334,0.3910272 c -0.41902,0.023644 -0.79009,-0.2684021 -0.86558,-0.6812473 l -2.15516,-11.7699658 c -0.13817,-0.753806 0.39981,-1.463871 1.16288,-1.534854 z M 104.18162,7.8733479 c 0.4645,-0.6093942 1.35156,-0.6894248 1.91763,-0.1730076 l 8.83829,8.0660707 c 0.31007,0.282836 0.36104,0.752285 0.11889,1.095073 l -4.00586,5.672281 c -0.8438,1.194572 -0.61475,2.839126 0.52337,3.757654 l 2.09121,1.687007 c 0.4222,0.340807 0.49554,0.956148 0.16527,1.38664 l -5.49128,7.16138 c -1.15812,1.510085 -0.89954,3.668426 0.58252,4.862203 l 4.97375,4.006599 c 0.10785,0.08672 0.0515,0.260773 -0.0867,0.26784 l -4.21976,0.208746 c -0.21828,0.01079 -0.52583,-0.100461 -0.68733,-0.247702 C 102.74387,40.010227 96.176939,34.42425 90.018739,28.778021 89.439264,28.246722 89.358746,27.306128 89.836228,26.680134 Z m 33.56389,-0.1845671 c 0.13682,-0.1754872 0.34104,-0.2854564 0.56286,-0.3030889 l 7.98986,-0.6297154 c 0.36024,-0.028289 0.67884,0.2321823 0.72272,0.5908547 l 0.72153,5.9136298 c 0.75087,1.661206 3.04694,2.630869 5.23524,2.210925 1.59928,-0.308375 2.76234,-1.292658 3.04508,-2.498833 0.0856,-0.36533 0.36757,-0.711572 0.74147,-0.75479 l 3.13671,-0.36239 c 0.5329,-0.0616 1.01179,0.320468 1.06697,0.853815 0.35384,3.419929 0.63012,6.837416 0.65306,10.283479 -1.5126,1.9246 -13.15315,19.188633 -13.76425,18.710409 L 134.54787,17.262759 c -0.0742,-0.136176 -0.0138,-0.209159 0.13776,-0.176788 0.87827,0.187542 1.84795,0.03424 2.69463,-0.434067 1.75356,-0.971837 2.49137,-2.993512 1.64793,-4.515547 -0.14983,-0.268741 -0.34389,-0.510263 -0.57518,-0.716938 -0.20005,-0.178771 -0.42424,-0.506792 -0.46901,-0.77164 l -0.39538,-2.3391295 c -0.037,-0.2194823 0.02,-0.4443968 0.15689,-0.6198687 z m -16.39354,9.0944252 c 0.2214,-0.02285 0.44222,0.04835 0.60858,0.196224 l 1.7737,1.574652 c 0.20086,0.178339 0.36043,0.542764 0.40599,0.807162 0.0527,0.305667 0.15435,0.597792 0.30282,0.867287 0.84359,1.521952 2.94899,1.967879 4.70253,0.99602 0.8459,-0.469741 1.48985,-1.210745 1.79634,-2.054903 0.0529,-0.145706 0.14676,-0.15817 0.22293,-0.02311 1.35817,2.5636 14.08539,24.30161 13.46662,24.614044 l -22.95766,1.380327 c -2.91,-1.846008 -5.66125,-3.891234 -8.37371,-6.003983 -0.42301,-0.329489 -0.49317,-0.938078 -0.15847,-1.357321 l 1.97033,-2.468011 c 0.23483,-0.294148 0.67716,-0.349894 1.03234,-0.228875 1.17267,0.399557 2.62378,-0.06497 3.73296,-1.257668 1.51599,-1.633034 1.91075,-4.093996 0.90008,-5.611215 l -4.63145,-3.7461 c -0.28125,-0.227285 -0.33338,-0.635853 -0.11821,-0.926476 l 4.76872,-6.440702 c 0.13244,-0.17907 0.33404,-0.294231 0.55556,-0.317351 z m 55.51882,-6.833484 c 0.29964,-0.1543626 0.6298,-0.2498408 0.91878,-0.2504237 l 6.07699,-0.012097 c 0.40374,-9.531e-4 0.64986,0.4437537 0.43466,0.7853577 l -19.78605,31.393989 c -0.28603,0.454055 -0.7811,0.733976 -1.31762,0.745015 l -9.10207,0.186781 c -0.35382,0.0073 -0.47593,-0.221893 -0.27293,-0.511642 7.41539,-10.58414 14.8074,-21.24196 22.3112,-31.734118 0.16811,-0.235059 0.43741,-0.4485 0.73704,-0.602862 z m -74.33977,41.209753 c 0.28971,-0.172263 0.6132,-0.287942 0.90162,-0.305904 12.87438,-0.801755 25.83068,-1.42071 38.7362,-2.098736 0.35329,-0.01856 0.48245,0.206701 0.28874,0.502874 l -4.9831,7.618854 c -0.29374,0.449105 -0.79351,0.720535 -1.33014,0.722415 L 99.035698,57.73695 c -0.40374,0.0014 -0.650382,-0.443002 -0.435571,-0.784856 l 3.231753,-5.146955 c 0.15367,-0.244744 0.40943,-0.473401 0.69914,-0.645664 z"
         transform="rotate(28.995927)" /><path
         style="opacity:1;fill:#000000;stroke-width:0.055283"
         d="m 90.932164,73.897379 c -0.249963,-0.125456 -0.533674,-0.212676 -0.843008,-0.256966 -0.256285,-0.03962 -0.532768,-0.05022 -0.826009,-0.03413 -1.181939,0.06546 -2.543987,0.63571 -4.169427,1.741992 l -0.163543,0.111304 c -0.145484,-0.02328 -0.294413,-0.04424 -0.449075,-0.06641 -1.00316,-0.147955 -1.913458,-0.430517 -2.762114,-0.856915 -0.400151,-2.199523 -1.066417,-3.947753 -1.983111,-5.199398 -0.153848,-0.2113 -0.321991,-0.392443 -0.504545,-0.543436 -0.287964,-0.247393 -0.606854,-0.42283 -0.94705,-0.512363 -0.0059,-0.0012 -0.0059,-0.0012 -0.0114,-0.0024 -0.540327,-0.14189 -1.097978,-0.05286 -1.527371,0.239382 -0.432783,0.294554 -0.701054,0.757447 -0.751321,1.306437 -0.04913,0.543078 0.122277,1.12468 0.497111,1.690077 0.573028,0.863744 1.193479,1.628954 1.846263,2.280407 0.0539,0.05001 0.104478,0.10218 0.158359,0.152103 0.605402,0.581822 1.255223,1.082358 1.935602,1.495915 0.132473,0.883276 0.19987,1.678329 0.240538,2.221475 0.03116,0.412045 0.05468,0.849625 0.0714,1.291819 -0.766671,0.756273 -1.376811,1.456916 -1.858271,2.141375 -0.655297,0.920012 -1.072826,1.815704 -1.238112,2.657029 -0.109092,0.543124 -0.0982,1.035211 0.03451,1.464727 0.13306,0.444571 0.388837,0.805616 0.74113,1.044918 0.325478,0.221859 0.713215,0.330017 1.117972,0.309357 0.09663,-0.0047 0.191872,-0.01849 0.288169,-0.03812 0.279742,-0.05789 0.551467,-0.171492 0.80018,-0.340759 0.575898,-0.39196 0.995735,-1.049755 1.186138,-1.846983 0.352829,-1.488818 0.383207,-3.51749 0.361926,-4.772102 0.417039,-0.390864 0.882094,-0.799127 1.411928,-1.25148 0.62733,-0.52893 1.195194,-0.976521 1.722754,-1.366225 0.271298,0.03962 0.531021,0.0769 0.779213,0.111822 1.380549,0.196899 2.409643,0.317069 3.263631,0.311738 0.0024,0.0036 0.0059,0.0012 0.0092,-9.97e-4 0.338433,-0.001 0.647595,-0.02286 0.940231,-0.0691 0.329312,-0.05084 0.624176,-0.159793 0.883149,-0.336052 0.327142,-0.222654 0.565054,-0.532384 0.695009,-0.89092 0.128584,-0.367826 0.128739,-0.770535 0.0029,-1.138527 -0.154695,-0.439914 -0.494726,-0.814944 -0.952839,-1.048481 z M 78.649681,72.0485 c -0.34172,-0.39944 -0.667946,-0.834839 -0.983519,-1.313185 -0.299089,-0.453878 -0.345082,-0.866019 -0.109973,-1.026033 0.177155,-0.120566 0.476034,-0.08445 0.774584,0.171008 0.08787,0.07778 0.178407,0.174168 0.264751,0.293751 0.106275,0.141717 0.207307,0.297222 0.307121,0.458619 0.280651,0.456274 0.525624,0.977541 0.739918,1.57073 0.142097,0.377296 0.269838,0.784714 0.383175,1.222284 -0.479746,-0.397104 -0.939968,-0.853471 -1.37609,-1.37715 z m 0.555601,13.035953 c -0.157529,-0.106845 -0.284871,-0.432988 -0.167466,-1.022538 0.18144,-0.898157 0.745441,-1.893611 1.712199,-3.015389 -0.01158,0.46655 -0.03864,0.902915 -0.07558,1.310256 -0.05215,0.626677 -0.133302,1.181408 -0.240738,1.631643 -0.09019,0.387528 -0.261178,0.707817 -0.489612,0.914274 -0.03954,0.03715 -0.0815,0.07073 -0.125802,0.100883 -0.221423,0.150773 -0.463692,0.183149 -0.613013,0.08086 z m 2.925311,-7.408587 -0.0022,-0.05455 -0.03271,0.03251 c -0.0052,-0.022 -0.0067,-0.04643 -0.0059,-0.06726 -0.02514,-0.34473 -0.06033,-0.784577 -0.115001,-1.282501 l 0.04312,0.0267 -0.0197,-0.124178 c 0.285352,0.11158 0.582,0.210407 0.880646,0.297596 0.142426,0.04064 0.285837,0.07555 0.429204,0.110491 l -0.05203,0.04064 0.07851,0.01279 c -0.132593,0.105497 -0.269569,0.219194 -0.406679,0.33281 -0.08493,0.07306 -0.175597,0.145017 -0.263863,0.220388 -0.183406,0.155403 -0.363413,0.308524 -0.533222,0.454658 z m 7.214263,-1.729861 c -0.585644,0.01123 -1.292563,-0.05295 -2.190423,-0.170679 0.85085,-0.456789 1.595399,-0.703575 2.218516,-0.74034 0.272484,-0.01728 0.499592,0.0015 0.676617,0.04913 0.284479,0.06627 0.451493,0.187071 0.494248,0.315977 0.04628,0.12651 -0.02322,0.280839 -0.169781,0.380582 -0.08521,0.05799 -0.187989,0.09736 -0.310789,0.114708 -0.208911,0.03008 -0.436486,0.04731 -0.688505,0.0507 -0.0069,0.0047 -0.01833,0.0022 -0.02991,-1.25e-4 z"
         id="path6" /><path
         id="rect121"
         style="display:inline;opacity:0.155;fill:#000000;stroke-width:0.47637"
         d="m 123.49609,121.18359 c -0.0289,0.018 -12.20973,-5.20534 -16.11107,-7.20029 l 0.0786,38.16301 a 4.2508524,4.2508524 31.399057 0 0 6.18623,3.77595 l 33.39355,-17.07647 c -0.0508,-9.98308 -1.43275,-20.90087 -1.48353,-30.88394 -5.04831,2.46405 -16.88308,9.99252 -22.06377,13.22174 z" /></g></g></svg>
